<svg xmlns="http://www.w3.org/2000/svg" viewBox="0 0 46 46"><title>名称未設定-1</title><path d="M32.543,18.11c.011.211.013.422.013.636A14,14,0,0,1,11,30.533a9.674,9.674,0,0,0,1.173.067A9.879,9.879,0,0,0,18.289,28.5a4.927,4.927,0,0,1-4.6-3.415A5,5,0,0,0,15.916,25a4.927,4.927,0,0,1-3.954-4.823v-.062a4.942,4.942,0,0,0,2.233.613,4.913,4.913,0,0,1-1.525-6.569A13.994,13.994,0,0,0,22.821,19.3a4.925,4.925,0,0,1,8.389-4.486,9.855,9.855,0,0,0,3.128-1.2,4.933,4.933,0,0,1-2.166,2.72A9.717,9.717,0,0,0,35,15.565a10.041,10.041,0,0,1-2.456,2.546Z"/></svg>